<svg xmlns="http://www.w3.org/2000/svg" viewBox="0 0 64 64">
  <rect width="64" height="64" rx="14" fill="#f4f6f1"/>
  <circle cx="32" cy="32" r="25" fill="none" stroke="#0f6b4b" stroke-width="3"/>
  <path d="M39 31V20.5a3 3 0 0 0-6 0V29m0-8.5v-3a3 3 0 0 0-6 0V29m0-7.5a3 3 0 0 0-6 0V36l-3.4-3.4a3 3 0 0 0-4.2 4.2l7.8 7.8A12 12 0 0 0 29.7 48H34a11 11 0 0 0 11-11V25.5a3 3 0 0 0-6 0V31Z" fill="none" stroke="#8f304a" stroke-linecap="round" stroke-linejoin="round" stroke-width="2.5"/>
  <circle cx="44" cy="15" r="4" fill="#c8a24a"/>
</svg>
